# xmcd
#
# Track frame offsets:
#	150
#	16280
#	33360
#	50764
#	67702
#	88732
#	101860
#	125002
#	142375
#	159800
#	171845
#	185365
#
# Disc length: 2597 seconds
#
# Revision: 1
# Processed by: cddbd v1.5.2PL0 Copyright (c) Steve Scherf et al.
# Submitted via: audiograbber 1.83.01
#
DISCID=a30a230c
DTITLE=MARIO SINN - Canta Sucessos
DYEAR=1900
DGENRE=Pop
TTITLE0=Hoje eu quero te amar
TTITLE1=Brincar de ser feliz
TTITLE2=Faz mais uma vez comigo
TTITLE3=Indiferença
TTITLE4=Eu preciso ser amado
TTITLE5=Los hombres no debem horar
TTITLE6=Evidencias
TTITLE7=Estou apaixonado
TTITLE8=Hoje eu sei
TTITLE9=Noite triste
TTITLE10=Lições
TTITLE11=Meu desejo
EXTD=
EXTT0=
EXTT1=
EXTT2=
EXTT3=
EXTT4=
EXTT5=
EXTT6=
EXTT7=
EXTT8=
EXTT9=
EXTT10=
EXTT11=
PLAYORDER=
